<svg width="17" height="16" viewBox="0 0 17 16" fill="none" xmlns="http://www.w3.org/2000/svg">
<path d="M4.00151 4C4.00151 1.79086 5.79305 0 8.00302 0C10.213 0 12.0045 1.79086 12.0045 4C12.0045 6.20914 10.213 8 8.00302 8C6.94176 8 5.92396 7.57857 5.17353 6.82843C4.4231 6.07828 4.00151 5.06087 4.00151 4ZM15.896 14.55L14.4555 11.66C13.9465 10.6408 12.904 9.99776 11.7644 10H4.2416C3.10207 9.99776 2.05957 10.6408 1.55058 11.66L0.11004 14.55C-0.0459879 14.8595 -0.0305584 15.2277 0.150819 15.5231C0.332195 15.8185 0.653653 15.999 1.00038 16H15.0057C15.3524 15.999 15.6739 15.8185 15.8552 15.5231C16.0366 15.2277 16.052 14.8595 15.896 14.55Z" fill="#333333"/>
</svg>
